<svg xmlns="http://www.w3.org/2000/svg" xmlns:xlink="http://www.w3.org/1999/xlink" contentStyleType="text/css" data-diagram-type="CLASS" height="615px" preserveAspectRatio="none" style="width:776px;height:615px;background:#FFFFFF;" version="1.1" viewBox="0 0 776 615" width="776px" zoomAndPan="magnify"><title>Métamodèle ASA M2</title><defs/><g><g class="title" data-source-line="4"><text fill="#000000" font-family="sans-serif" font-size="14" font-weight="bold" lengthAdjust="spacing" textLength="162.7568" x="299.996" y="22.9951">Métamodèle ASA M2</text></g><!--class Configuration--><g class="entity" data-entity="Configuration" data-source-line="8" data-uid="ent0002" id="entity_Configuration"><rect fill="#F1F1F1" height="48" rx="2.5" ry="2.5" style="stroke:#181818;stroke-width:0.5;" width="126.9443" x="365.71" y="44.2969"/><ellipse cx="380.71" cy="60.2969" fill="#ADD1B2" rx="11" ry="11" style="stroke:#181818;stroke-width:1;"/><path d="M383.6788,65.9375 Q383.1006,66.2344 382.46,66.375 Q381.8194,66.5313 381.1163,66.5313 Q378.6163,66.5313 377.2881,64.8906 Q375.9756,63.2344 375.9756,60.1094 Q375.9756,56.9844 377.2881,55.3281 Q378.6163,53.6719 381.1163,53.6719 Q381.8194,53.6719 382.46,53.8281 Q383.1163,53.9844 383.6788,54.2813 L383.6788,57 Q383.0538,56.4219 382.46,56.1563 Q381.8663,55.875 381.2413,55.875 Q379.8975,55.875 379.21,56.9531 Q378.5225,58.0156 378.5225,60.1094 Q378.5225,62.2031 379.21,63.2813 Q379.8975,64.3438 381.2413,64.3438 Q381.8663,64.3438 382.46,64.0781 Q383.0538,63.7969 383.6788,63.2188 L383.6788,65.9375 Z " fill="#000000"/><text fill="#000000" font-family="sans-serif" font-size="14" lengthAdjust="spacing" textLength="94.9443" x="394.71" y="65.1436">Configuration</text><line style="stroke:#181818;stroke-width:0.5;" x1="366.71" x2="491.6543" y1="76.2969" y2="76.2969"/><line style="stroke:#181818;stroke-width:0.5;" x1="366.71" x2="491.6543" y1="84.2969" y2="84.2969"/></g><!--class Composant--><g class="entity" data-entity="Composant" data-source-line="12" data-uid="ent0003" id="entity_Composant"><rect fill="#F1F1F1" height="80.5938" rx="2.5" ry="2.5" style="stroke:#181818;stroke-width:0.5;" width="344.3701" x="7" y="169.2969"/><ellipse cx="135.1021" cy="185.2969" fill="#ADD1B2" rx="11" ry="11" style="stroke:#181818;stroke-width:1;"/><path d="M138.0708,190.9375 Q137.4927,191.2344 136.8521,191.375 Q136.2114,191.5313 135.5083,191.5313 Q133.0083,191.5313 131.6802,189.8906 Q130.3677,188.2344 130.3677,185.1094 Q130.3677,181.9844 131.6802,180.3281 Q133.0083,178.6719 135.5083,178.6719 Q136.2114,178.6719 136.8521,178.8281 Q137.5083,178.9844 138.0708,179.2813 L138.0708,182 Q137.4458,181.4219 136.8521,181.1563 Q136.2583,180.875 135.6333,180.875 Q134.2896,180.875 133.6021,181.9531 Q132.9146,183.0156 132.9146,185.1094 Q132.9146,187.2031 133.6021,188.2813 Q134.2896,189.3438 135.6333,189.3438 Q136.2583,189.3438 136.8521,189.0781 Q137.4458,188.7969 138.0708,188.2188 L138.0708,190.9375 Z " fill="#000000"/><text fill="#000000" font-family="sans-serif" font-size="14" lengthAdjust="spacing" textLength="79.666" x="155.6021" y="190.1436">Composant</text><line style="stroke:#181818;stroke-width:0.5;" x1="8" x2="350.3701" y1="201.2969" y2="201.2969"/><g data-visibility-modifier="PUBLIC_FIELD"><ellipse cx="13" cy="214.4453" fill="none" rx="-2" ry="-2" style="stroke:#038048;stroke-width:1;"/></g><text fill="#000000" font-family="sans-serif" font-size="14" lengthAdjust="spacing" textLength="230.8359" x="27" y="218.292">proprietes : Map&lt;String, String&gt;</text><g data-visibility-modifier="PUBLIC_FIELD"><ellipse cx="13" cy="230.7422" fill="none" rx="-2" ry="-2" style="stroke:#038048;stroke-width:1;"/></g><text fill="#000000" font-family="sans-serif" font-size="14" lengthAdjust="spacing" textLength="318.3701" x="27" y="234.5889">contraintesTechinques : Map&lt;String, String&gt;</text><line style="stroke:#181818;stroke-width:0.5;" x1="8" x2="350.3701" y1="241.8906" y2="241.8906"/></g><!--class Connecteur--><g class="entity" data-entity="Connecteur" data-source-line="17" data-uid="ent0004" id="entity_Connecteur"><rect fill="#F1F1F1" height="64.2969" rx="2.5" ry="2.5" style="stroke:#181818;stroke-width:0.5;" width="113.1289" x="656.62" y="177.4369"/><ellipse cx="671.62" cy="193.4369" fill="#ADD1B2" rx="11" ry="11" style="stroke:#181818;stroke-width:1;"/><path d="M674.5888,199.0775 Q674.0106,199.3744 673.37,199.515 Q672.7294,199.6713 672.0263,199.6713 Q669.5263,199.6713 668.1981,198.0306 Q666.8856,196.3744 666.8856,193.2494 Q666.8856,190.1244 668.1981,188.4681 Q669.5263,186.8119 672.0263,186.8119 Q672.7294,186.8119 673.37,186.9681 Q674.0263,187.1244 674.5888,187.4213 L674.5888,190.14 Q673.9638,189.5619 673.37,189.2963 Q672.7763,189.015 672.1513,189.015 Q670.8075,189.015 670.12,190.0931 Q669.4325,191.1556 669.4325,193.2494 Q669.4325,195.3431 670.12,196.4213 Q670.8075,197.4838 672.1513,197.4838 Q672.7763,197.4838 673.37,197.2181 Q673.9638,196.9369 674.5888,196.3588 L674.5888,199.0775 Z " fill="#000000"/><text fill="#000000" font-family="sans-serif" font-size="14" lengthAdjust="spacing" textLength="81.1289" x="685.62" y="198.2836">Connecteur</text><line style="stroke:#181818;stroke-width:0.5;" x1="657.62" x2="768.7489" y1="209.4369" y2="209.4369"/><g data-visibility-modifier="PUBLIC_FIELD"><ellipse cx="662.62" cy="222.5853" fill="none" rx="-2" ry="-2" style="stroke:#038048;stroke-width:1;"/></g><text fill="#000000" font-family="sans-serif" font-size="14" lengthAdjust="spacing" textLength="85.6611" x="676.62" y="226.432">glue : String</text><line style="stroke:#181818;stroke-width:0.5;" x1="657.62" x2="768.7489" y1="233.7338" y2="233.7338"/></g><!--class Role--><g class="entity" data-entity="Role" data-source-line="21" data-uid="ent0005" id="entity_Role"><rect fill="#F1F1F1" height="48" rx="2.5" ry="2.5" style="stroke:#181818;stroke-width:0.5;" width="62.7959" x="646.79" y="326.8869"/><ellipse cx="661.79" cy="342.8869" fill="#A9DCDF" rx="11" ry="11" style="stroke:#181818;stroke-width:1;"/><path d="M661.8994,338.2306 L660.7431,343.3088 L663.0713,343.3088 L661.8994,338.2306 Z M660.415,335.9963 L663.3994,335.9963 L666.7588,348.3869 L664.3056,348.3869 L663.54,345.3244 L660.2588,345.3244 L659.5088,348.3869 L657.0713,348.3869 L660.415,335.9963 Z " fill="#000000"/><text fill="#000000" font-family="sans-serif" font-size="14" font-style="italic" lengthAdjust="spacing" textLength="30.7959" x="675.79" y="347.7336">Role</text><line style="stroke:#181818;stroke-width:0.5;" x1="647.79" x2="708.5859" y1="358.8869" y2="358.8869"/><line style="stroke:#181818;stroke-width:0.5;" x1="647.79" x2="708.5859" y1="366.8869" y2="366.8869"/></g><!--class Port--><g class="entity" data-entity="Port" data-source-line="25" data-uid="ent0006" id="entity_Port"><rect fill="#F1F1F1" height="48" rx="2.5" ry="2.5" style="stroke:#181818;stroke-width:0.5;" width="60.2529" x="350.06" y="326.8869"/><ellipse cx="365.06" cy="342.8869" fill="#A9DCDF" rx="11" ry="11" style="stroke:#181818;stroke-width:1;"/><path d="M365.1694,338.2306 L364.0131,343.3088 L366.3413,343.3088 L365.1694,338.2306 Z M363.685,335.9963 L366.6694,335.9963 L370.0288,348.3869 L367.5756,348.3869 L366.81,345.3244 L363.5288,345.3244 L362.7788,348.3869 L360.3413,348.3869 L363.685,335.9963 Z " fill="#000000"/><text fill="#000000" font-family="sans-serif" font-size="14" font-style="italic" lengthAdjust="spacing" textLength="28.2529" x="379.06" y="347.7336">Port</text><line style="stroke:#181818;stroke-width:0.5;" x1="351.06" x2="409.3129" y1="358.8869" y2="358.8869"/><line style="stroke:#181818;stroke-width:0.5;" x1="351.06" x2="409.3129" y1="366.8869" y2="366.8869"/></g><!--class ProvidedPort--><g class="entity" data-entity="ProvidedPort" data-source-line="26" data-uid="ent0007" id="entity_ProvidedPort"><rect fill="#F1F1F1" height="48" rx="2.5" ry="2.5" style="stroke:#181818;stroke-width:0.5;" width="121.5781" x="387.4" y="435.8869"/><ellipse cx="402.4" cy="451.8869" fill="#ADD1B2" rx="11" ry="11" style="stroke:#181818;stroke-width:1;"/><path d="M405.3688,457.5275 Q404.7906,457.8244 404.15,457.965 Q403.5094,458.1213 402.8063,458.1213 Q400.3063,458.1213 398.9781,456.4806 Q397.6656,454.8244 397.6656,451.6994 Q397.6656,448.5744 398.9781,446.9181 Q400.3063,445.2619 402.8063,445.2619 Q403.5094,445.2619 404.15,445.4181 Q404.8063,445.5744 405.3688,445.8713 L405.3688,448.59 Q404.7438,448.0119 404.15,447.7463 Q403.5563,447.465 402.9313,447.465 Q401.5875,447.465 400.9,448.5431 Q400.2125,449.6056 400.2125,451.6994 Q400.2125,453.7931 400.9,454.8713 Q401.5875,455.9338 402.9313,455.9338 Q403.5563,455.9338 404.15,455.6681 Q404.7438,455.3869 405.3688,454.8088 L405.3688,457.5275 Z " fill="#000000"/><text fill="#000000" font-family="sans-serif" font-size="14" lengthAdjust="spacing" textLength="89.5781" x="416.4" y="456.7336">ProvidedPort</text><line style="stroke:#181818;stroke-width:0.5;" x1="388.4" x2="507.9781" y1="467.8869" y2="467.8869"/><line style="stroke:#181818;stroke-width:0.5;" x1="388.4" x2="507.9781" y1="475.8869" y2="475.8869"/></g><!--class RequiredPort--><g class="entity" data-entity="RequiredPort" data-source-line="27" data-uid="ent0008" id="entity_RequiredPort"><rect fill="#F1F1F1" height="48" rx="2.5" ry="2.5" style="stroke:#181818;stroke-width:0.5;" width="123.499" x="228.44" y="435.8869"/><ellipse cx="243.44" cy="451.8869" fill="#ADD1B2" rx="11" ry="11" style="stroke:#181818;stroke-width:1;"/><path d="M246.4088,457.5275 Q245.8306,457.8244 245.19,457.965 Q244.5494,458.1213 243.8463,458.1213 Q241.3463,458.1213 240.0181,456.4806 Q238.7056,454.8244 238.7056,451.6994 Q238.7056,448.5744 240.0181,446.9181 Q241.3463,445.2619 243.8463,445.2619 Q244.5494,445.2619 245.19,445.4181 Q245.8463,445.5744 246.4088,445.8713 L246.4088,448.59 Q245.7838,448.0119 245.19,447.7463 Q244.5963,447.465 243.9713,447.465 Q242.6275,447.465 241.94,448.5431 Q241.2525,449.6056 241.2525,451.6994 Q241.2525,453.7931 241.94,454.8713 Q242.6275,455.9338 243.9713,455.9338 Q244.5963,455.9338 245.19,455.6681 Q245.7838,455.3869 246.4088,454.8088 L246.4088,457.5275 Z " fill="#000000"/><text fill="#000000" font-family="sans-serif" font-size="14" lengthAdjust="spacing" textLength="91.499" x="257.44" y="456.7336">RequiredPort</text><line style="stroke:#181818;stroke-width:0.5;" x1="229.44" x2="350.939" y1="467.8869" y2="467.8869"/><line style="stroke:#181818;stroke-width:0.5;" x1="229.44" x2="350.939" y1="475.8869" y2="475.8869"/></g><!--class Service--><g class="entity" data-entity="Service" data-source-line="29" data-uid="ent0009" id="entity_Service"><rect fill="#F1F1F1" height="48" rx="2.5" ry="2.5" style="stroke:#181818;stroke-width:0.5;" width="83.7412" x="109.31" y="435.8869"/><ellipse cx="124.31" cy="451.8869" fill="#A9DCDF" rx="11" ry="11" style="stroke:#181818;stroke-width:1;"/><path d="M124.4194,447.2306 L123.2631,452.3088 L125.5913,452.3088 L124.4194,447.2306 Z M122.935,444.9963 L125.9194,444.9963 L129.2788,457.3869 L126.8256,457.3869 L126.06,454.3244 L122.7788,454.3244 L122.0288,457.3869 L119.5913,457.3869 L122.935,444.9963 Z " fill="#000000"/><text fill="#000000" font-family="sans-serif" font-size="14" font-style="italic" lengthAdjust="spacing" textLength="51.7412" x="138.31" y="456.7336">Service</text><line style="stroke:#181818;stroke-width:0.5;" x1="110.31" x2="192.0512" y1="467.8869" y2="467.8869"/><line style="stroke:#181818;stroke-width:0.5;" x1="110.31" x2="192.0512" y1="475.8869" y2="475.8869"/></g><!--class ProvidedService--><g class="entity" data-entity="ProvidedService" data-source-line="30" data-uid="ent0010" id="entity_ProvidedService"><rect fill="#F1F1F1" height="48" rx="2.5" ry="2.5" style="stroke:#181818;stroke-width:0.5;" width="145.0664" x="317.65" y="560.8869"/><ellipse cx="332.65" cy="576.8869" fill="#ADD1B2" rx="11" ry="11" style="stroke:#181818;stroke-width:1;"/><path d="M335.6188,582.5275 Q335.0406,582.8244 334.4,582.965 Q333.7594,583.1213 333.0563,583.1213 Q330.5563,583.1213 329.2281,581.4806 Q327.9156,579.8244 327.9156,576.6994 Q327.9156,573.5744 329.2281,571.9181 Q330.5563,570.2619 333.0563,570.2619 Q333.7594,570.2619 334.4,570.4181 Q335.0563,570.5744 335.6188,570.8713 L335.6188,573.59 Q334.9938,573.0119 334.4,572.7463 Q333.8063,572.465 333.1813,572.465 Q331.8375,572.465 331.15,573.5431 Q330.4625,574.6056 330.4625,576.6994 Q330.4625,578.7931 331.15,579.8713 Q331.8375,580.9338 333.1813,580.9338 Q333.8063,580.9338 334.4,580.6681 Q334.9938,580.3869 335.6188,579.8088 L335.6188,582.5275 Z " fill="#000000"/><text fill="#000000" font-family="sans-serif" font-size="14" lengthAdjust="spacing" textLength="113.0664" x="346.65" y="581.7336">ProvidedService</text><line style="stroke:#181818;stroke-width:0.5;" x1="318.65" x2="461.7164" y1="592.8869" y2="592.8869"/><line style="stroke:#181818;stroke-width:0.5;" x1="318.65" x2="461.7164" y1="600.8869" y2="600.8869"/></g><!--class RequiredService--><g class="entity" data-entity="RequiredService" data-source-line="31" data-uid="ent0011" id="entity_RequiredService"><rect fill="#F1F1F1" height="48" rx="2.5" ry="2.5" style="stroke:#181818;stroke-width:0.5;" width="146.9873" x="129.69" y="560.8869"/><ellipse cx="144.69" cy="576.8869" fill="#ADD1B2" rx="11" ry="11" style="stroke:#181818;stroke-width:1;"/><path d="M147.6588,582.5275 Q147.0806,582.8244 146.44,582.965 Q145.7994,583.1213 145.0963,583.1213 Q142.5963,583.1213 141.2681,581.4806 Q139.9556,579.8244 139.9556,576.6994 Q139.9556,573.5744 141.2681,571.9181 Q142.5963,570.2619 145.0963,570.2619 Q145.7994,570.2619 146.44,570.4181 Q147.0963,570.5744 147.6588,570.8713 L147.6588,573.59 Q147.0338,573.0119 146.44,572.7463 Q145.8463,572.465 145.2213,572.465 Q143.8775,572.465 143.19,573.5431 Q142.5025,574.6056 142.5025,576.6994 Q142.5025,578.7931 143.19,579.8713 Q143.8775,580.9338 145.2213,580.9338 Q145.8463,580.9338 146.44,580.6681 Q147.0338,580.3869 147.6588,579.8088 L147.6588,582.5275 Z " fill="#000000"/><text fill="#000000" font-family="sans-serif" font-size="14" lengthAdjust="spacing" textLength="114.9873" x="158.69" y="581.7336">RequiredService</text><line style="stroke:#181818;stroke-width:0.5;" x1="130.69" x2="275.6773" y1="592.8869" y2="592.8869"/><line style="stroke:#181818;stroke-width:0.5;" x1="130.69" x2="275.6773" y1="600.8869" y2="600.8869"/></g><!--class Attachment--><g class="entity" data-entity="Attachment" data-source-line="35" data-uid="ent0012" id="entity_Attachment"><rect fill="#F1F1F1" height="48" rx="2.5" ry="2.5" style="stroke:#181818;stroke-width:0.5;" width="114.3184" x="507.03" y="185.5869"/><ellipse cx="522.03" cy="201.5869" fill="#ADD1B2" rx="11" ry="11" style="stroke:#181818;stroke-width:1;"/><path d="M524.9988,207.2275 Q524.4206,207.5244 523.78,207.665 Q523.1394,207.8213 522.4363,207.8213 Q519.9363,207.8213 518.6081,206.1806 Q517.2956,204.5244 517.2956,201.3994 Q517.2956,198.2744 518.6081,196.6181 Q519.9363,194.9619 522.4363,194.9619 Q523.1394,194.9619 523.78,195.1181 Q524.4363,195.2744 524.9988,195.5713 L524.9988,198.29 Q524.3738,197.7119 523.78,197.4463 Q523.1863,197.165 522.5613,197.165 Q521.2175,197.165 520.53,198.2431 Q519.8425,199.3056 519.8425,201.3994 Q519.8425,203.4931 520.53,204.5713 Q521.2175,205.6338 522.5613,205.6338 Q523.1863,205.6338 523.78,205.3681 Q524.3738,205.0869 524.9988,204.5088 L524.9988,207.2275 Z " fill="#000000"/><text fill="#000000" font-family="sans-serif" font-size="14" lengthAdjust="spacing" textLength="82.3184" x="536.03" y="206.4336">Attachment</text><line style="stroke:#181818;stroke-width:0.5;" x1="508.03" x2="620.3484" y1="217.5869" y2="217.5869"/><line style="stroke:#181818;stroke-width:0.5;" x1="508.03" x2="620.3484" y1="225.5869" y2="225.5869"/></g><!--class Binding--><g class="entity" data-entity="Binding" data-source-line="36" data-uid="ent0013" id="entity_Binding"><rect fill="#F1F1F1" height="48" rx="2.5" ry="2.5" style="stroke:#181818;stroke-width:0.5;" width="84.9033" x="386.73" y="185.5869"/><ellipse cx="401.73" cy="201.5869" fill="#ADD1B2" rx="11" ry="11" style="stroke:#181818;stroke-width:1;"/><path d="M404.6988,207.2275 Q404.1206,207.5244 403.48,207.665 Q402.8394,207.8213 402.1363,207.8213 Q399.6363,207.8213 398.3081,206.1806 Q396.9956,204.5244 396.9956,201.3994 Q396.9956,198.2744 398.3081,196.6181 Q399.6363,194.9619 402.1363,194.9619 Q402.8394,194.9619 403.48,195.1181 Q404.1363,195.2744 404.6988,195.5713 L404.6988,198.29 Q404.0738,197.7119 403.48,197.4463 Q402.8863,197.165 402.2613,197.165 Q400.9175,197.165 400.23,198.2431 Q399.5425,199.3056 399.5425,201.3994 Q399.5425,203.4931 400.23,204.5713 Q400.9175,205.6338 402.2613,205.6338 Q402.8863,205.6338 403.48,205.3681 Q404.0738,205.0869 404.6988,204.5088 L404.6988,207.2275 Z " fill="#000000"/><text fill="#000000" font-family="sans-serif" font-size="14" lengthAdjust="spacing" textLength="52.9033" x="415.73" y="206.4336">Binding</text><line style="stroke:#181818;stroke-width:0.5;" x1="387.73" x2="470.6333" y1="217.5869" y2="217.5869"/><line style="stroke:#181818;stroke-width:0.5;" x1="387.73" x2="470.6333" y1="225.5869" y2="225.5869"/></g><!--reverse link Composant to Configuration--><g class="link" data-entity-1="Composant" data-entity-2="Configuration" data-link-type="extension" data-source-line="43" data-uid="lnk14" id="link_Composant_Configuration"><path codeLine="43" d="M236.114,156.8743 C261.094,134.1843 274.19,122.2969 274.19,122.2969 C274.19,122.2969 322.55,105.7569 365.25,91.1569" fill="none" id="Composant-backto-Configuration" style="stroke:#181818;stroke-width:1;"/><polygon fill="none" points="222.79,168.9769,240.1482,161.3157,232.0798,152.433,222.79,168.9769" style="stroke:#181818;stroke-width:1;"/></g><!--reverse link Configuration to Composant--><g class="link" data-entity-1="Configuration" data-entity-2="Composant" data-link-type="composition" data-source-line="64" data-uid="lnk22" id="link_Configuration_Composant"><path codeLine="64" d="M376.577,98.607 C339.277,119.387 294.56,144.3069 250.41,168.9069" fill="none" id="Configuration-backto-Composant" style="stroke:#181818;stroke-width:1;"/><polygon fill="#181818" points="387.06,92.7669,379.8718,92.1926,376.577,98.607,383.7652,99.1813,387.06,92.7669" style="stroke:#181818;stroke-width:1;"/><text fill="#000000" font-family="sans-serif" font-size="13" lengthAdjust="spacing" textLength="61.8452" x="334.19" y="135.3638">instances</text><text fill="#000000" font-family="sans-serif" font-size="13" lengthAdjust="spacing" textLength="23.0356" x="236.9315" y="158.3046">0..*</text></g><!--reverse link Port to ProvidedPort--><g class="link" data-entity-1="Port" data-entity-2="ProvidedPort" data-link-type="extension" data-source-line="46" data-uid="lnk15" id="link_Port_ProvidedPort"><path codeLine="46" d="M404.766,390.5577 C416.106,408.3977 421.97,417.6369 433.3,435.4569" fill="none" id="Port-backto-ProvidedPort" style="stroke:#181818;stroke-width:1;"/><polygon fill="none" points="395.11,375.3669,399.7024,393.7764,409.8296,387.339,395.11,375.3669" style="stroke:#181818;stroke-width:1;"/></g><!--reverse link Port to RequiredPort--><g class="link" data-entity-1="Port" data-entity-2="RequiredPort" data-link-type="extension" data-source-line="47" data-uid="lnk16" id="link_Port_RequiredPort"><path codeLine="47" d="M348.846,389.1441 C333.846,406.9841 324.88,417.6369 309.89,435.4569" fill="none" id="Port-backto-RequiredPort" style="stroke:#181818;stroke-width:1;"/><polygon fill="none" points="360.43,375.3669,344.2536,385.2828,353.4384,393.0054,360.43,375.3669" style="stroke:#181818;stroke-width:1;"/></g><!--reverse link Service to ProvidedService--><g class="link" data-entity-1="Service" data-entity-2="ProvidedService" data-link-type="extension" data-source-line="48" data-uid="lnk17" id="link_Service_ProvidedService"><path codeLine="48" d="M210.3154,483.5549 C220.2454,487.3649 211.19,483.8869 211.19,483.8869 C211.19,483.8869 326.19,513.8869 326.19,513.8869 C326.19,513.8869 350.26,540.2169 368.87,560.5769" fill="none" id="Service-backto-ProvidedService" style="stroke:#181818;stroke-width:1;"/><polygon fill="none" points="193.51,477.1069,208.1661,489.1567,212.4648,477.9531,193.51,477.1069" style="stroke:#181818;stroke-width:1;"/></g><!--reverse link Service to RequiredService--><g class="link" data-entity-1="Service" data-entity-2="RequiredService" data-link-type="extension" data-source-line="49" data-uid="lnk18" id="link_Service_RequiredService"><path codeLine="49" d="M168.0964,500.8873 C177.3464,522.7773 184.08,538.6869 193.32,560.5469" fill="none" id="Service-backto-RequiredService" style="stroke:#181818;stroke-width:1;"/><polygon fill="none" points="161.09,484.3069,162.5695,503.2228,173.6232,498.5519,161.09,484.3069" style="stroke:#181818;stroke-width:1;"/></g><!--reverse link Composant to Port--><g class="link" data-entity-1="Composant" data-entity-2="Port" data-link-type="composition" data-source-line="56" data-uid="lnk19" id="link_Composant_Port"><path codeLine="56" d="M213.5806,260.0592 C229.3506,282.7392 239.19,296.8869 239.19,296.8869 C239.19,296.8869 308.12,322.7969 349.59,338.3869" fill="none" id="Composant-backto-Port" style="stroke:#181818;stroke-width:1;"/><polygon fill="#181818" points="206.73,250.2069,206.8712,257.4166,213.5806,260.0592,213.4394,252.8495,206.73,250.2069" style="stroke:#181818;stroke-width:1;"/><text fill="#000000" font-family="sans-serif" font-size="13" lengthAdjust="spacing" textLength="23.0356" x="319.0947" y="331.9031">0..*</text></g><!--reverse link Composant to Service--><g class="link" data-entity-1="Composant" data-entity-2="Service" data-link-type="composition" data-source-line="58" data-uid="lnk20" id="link_Composant_Service"><path codeLine="58" d="M173.3748,262.1312 C167.4748,314.4312 158.62,392.9269 153.83,435.4769" fill="none" id="Composant-backto-Service" style="stroke:#181818;stroke-width:1;"/><polygon fill="#181818" points="174.72,250.2069,170.0726,255.7207,173.3748,262.1312,178.0222,256.6175,174.72,250.2069" style="stroke:#181818;stroke-width:1;"/><text fill="#000000" font-family="sans-serif" font-size="13" lengthAdjust="spacing" textLength="23.0356" x="128.677" y="424.7819">0..*</text></g><!--reverse link Connecteur to Role--><g class="link" data-entity-1="Connecteur" data-entity-2="Role" data-link-type="composition" data-source-line="61" data-uid="lnk21" id="link_Connecteur_Role"><path codeLine="61" d="M702.3178,253.8356 C695.8678,279.5256 689.83,303.5269 684.02,326.6469" fill="none" id="Connecteur-backto-Role" style="stroke:#181818;stroke-width:1;"/><polygon fill="#181818" points="705.24,242.1969,699.8993,247.0422,702.3178,253.8356,707.6585,248.9903,705.24,242.1969" style="stroke:#181818;stroke-width:1;"/><text fill="#000000" font-family="sans-serif" font-size="13" lengthAdjust="spacing" textLength="23.0356" x="688.249" y="315.9933">1..*</text></g><!--reverse link Configuration to Connecteur--><g class="link" data-entity-1="Configuration" data-entity-2="Connecteur" data-link-type="composition" data-source-line="65" data-uid="lnk23" id="link_Configuration_Connecteur"><path codeLine="65" d="M489.2541,97.8965 C551.3241,127.4565 639.19,169.2969 639.19,169.2969 C639.19,169.2969 646.41,173.1269 656.35,178.4069" fill="none" id="Configuration-backto-Connecteur" style="stroke:#181818;stroke-width:1;"/><polygon fill="#181818" points="478.42,92.7369,482.1172,98.9281,489.2541,97.8965,485.5569,91.7053,478.42,92.7369" style="stroke:#181818;stroke-width:1;"/><text fill="#000000" font-family="sans-serif" font-size="13" lengthAdjust="spacing" textLength="23.0356" x="625.4509" y="171.0093">0..*</text></g><!--reverse link Configuration to Attachment--><g class="link" data-entity-1="Configuration" data-entity-2="Attachment" data-link-type="composition" data-source-line="66" data-uid="lnk24" id="link_Configuration_Attachment"><path codeLine="66" d="M460.1319,101.2235 C485.0519,126.9335 516.57,159.4569 541.52,185.1969" fill="none" id="Configuration-backto-Attachment" style="stroke:#181818;stroke-width:1;"/><polygon fill="#181818" points="451.78,92.6069,453.0837,99.6991,460.1319,101.2235,458.8281,94.1312,451.78,92.6069" style="stroke:#181818;stroke-width:1;"/><text fill="#000000" font-family="sans-serif" font-size="13" lengthAdjust="spacing" textLength="23.0356" x="510.1956" y="174.5068">0..*</text></g><!--reverse link Configuration to Binding--><g class="link" data-entity-1="Configuration" data-entity-2="Binding" data-link-type="composition" data-source-line="67" data-uid="lnk25" id="link_Configuration_Binding"><path codeLine="67" d="M429.19,104.6069 C429.19,130.3169 429.19,159.4569 429.19,185.1969" fill="none" id="Configuration-backto-Binding" style="stroke:#181818;stroke-width:1;"/><polygon fill="#181818" points="429.19,92.6069,425.19,98.6069,429.19,104.6069,433.19,98.6069,429.19,92.6069" style="stroke:#181818;stroke-width:1;"/><text fill="#000000" font-family="sans-serif" font-size="13" lengthAdjust="spacing" textLength="23.0356" x="403.3933" y="174.5068">0..*</text></g><!--link ProvidedPort to ProvidedService--><g class="link" data-entity-1="ProvidedPort" data-entity-2="ProvidedService" data-link-type="dependency" data-source-line="73" data-uid="lnk26" id="link_ProvidedPort_ProvidedService"><path codeLine="73" d="M437.14,484.3069 C426.82,506.1969 414.0594,533.2602 403.7494,555.1202" fill="none" id="ProvidedPort-to-ProvidedService" style="stroke:#181818;stroke-width:1;"/><polygon fill="#181818" points="401.19,560.5469,408.647,554.1131,403.3229,556.0246,401.4114,550.7005,401.19,560.5469" style="stroke:#181818;stroke-width:1;"/><polygon fill="#000000" points="425.0575,526.9757,431.5734,520.048,426.257,517.5411,425.0575,526.9757" style="stroke:#000000;stroke-width:1;"/><text fill="#000000" font-family="sans-serif" font-size="13" lengthAdjust="spacing" textLength="46.668" x="436.19" y="526.9538">expose</text><text fill="#000000" font-family="sans-serif" font-size="13" lengthAdjust="spacing" textLength="23.0356" x="378.0741" y="549.869">1..*</text></g><!--link RequiredPort to RequiredService--><g class="link" data-entity-1="RequiredPort" data-entity-2="RequiredService" data-link-type="dependency" data-source-line="74" data-uid="lnk27" id="link_RequiredPort_RequiredService"><path codeLine="74" d="M273.62,484.3069 C258.14,506.1969 238.6145,533.7882 223.1545,555.6482" fill="none" id="RequiredPort-to-RequiredService" style="stroke:#181818;stroke-width:1;"/><polygon fill="#181818" points="219.69,560.5469,228.1525,555.5085,222.5771,556.4646,221.6209,550.8892,219.69,560.5469" style="stroke:#181818;stroke-width:1;"/><polygon fill="#000000" points="254.3025,526.5352,261.9253,520.8481,257.1267,517.4537,254.3025,526.5352" style="stroke:#000000;stroke-width:1;"/><text fill="#000000" font-family="sans-serif" font-size="13" lengthAdjust="spacing" textLength="51.8857" x="266.19" y="526.9538">requiert</text><text fill="#000000" font-family="sans-serif" font-size="13" lengthAdjust="spacing" textLength="23.0356" x="197.9146" y="549.869">1..*</text></g><!--link Attachment to Port--><g class="link" data-entity-1="Attachment" data-entity-2="Port" data-link-type="dependency" data-source-line="81" data-uid="lnk28" id="link_Attachment_Port"><path codeLine="81" d="M563.92,233.7169 C563.62,259.2769 563.19,296.8869 563.19,296.8869 C563.19,296.8869 468.143,324.4072 416.163,339.4672" fill="none" id="Attachment-to-Port" style="stroke:#181818;stroke-width:1;"/><polygon fill="#181818" points="410.4,341.1369,420.1576,342.4743,415.2025,339.7455,417.9314,334.7903,410.4,341.1369" style="stroke:#181818;stroke-width:1;"/><text fill="#000000" font-family="sans-serif" font-size="13" lengthAdjust="spacing" textLength="8.271" x="418.3432" y="334.2301">1</text></g><!--link Attachment to Role--><g class="link" data-entity-1="Attachment" data-entity-2="Role" data-link-type="dependency" data-source-line="82" data-uid="lnk29" id="link_Attachment_Role"><path codeLine="82" d="M586.19,234.0469 C605.05,254.1569 629.19,279.8869 629.19,279.8869 C629.19,279.8869 644.1679,301.3024 658.4279,321.6624" fill="none" id="Attachment-to-Role" style="stroke:#181818;stroke-width:1;"/><polygon fill="#181818" points="661.87,326.5769,659.9832,316.9104,659.0016,322.4815,653.4306,321.4999,661.87,326.5769" style="stroke:#181818;stroke-width:1;"/><text fill="#000000" font-family="sans-serif" font-size="13" lengthAdjust="spacing" textLength="8.271" x="648.9505" y="315.9063">1</text></g><!--link Binding to Port--><g class="link" data-entity-1="Binding" data-entity-2="Port" data-link-type="dependency" data-source-line="85" data-uid="lnk30" id="link_Binding_Port"><path codeLine="85" d="M393.59,233.9069 C380.67,242.3669 369.19,249.8869 369.19,249.8869 C369.19,249.8869 247.19,279.8869 247.19,279.8869 C247.19,279.8869 247.19,296.8869 247.19,296.8869 C247.19,296.8869 304.8365,319.8551 344.0965,335.5051" fill="none" id="Binding-to-Port" style="stroke:#181818;stroke-width:1;"/><polygon fill="#181818" points="349.67,337.7269,342.7909,330.6786,345.0254,335.8754,339.8286,338.1099,349.67,337.7269" style="stroke:#181818;stroke-width:1;"/><text fill="#000000" font-family="sans-serif" font-size="13" lengthAdjust="spacing" textLength="137.5728" x="248.19" y="292.9538">port_externe (config)</text><text fill="#000000" font-family="sans-serif" font-size="13" lengthAdjust="spacing" textLength="8.271" x="333.7194" y="348.5003">1</text></g><!--link Binding to Port--><g class="link" data-entity-1="Binding" data-entity-2="Port" data-link-type="dependency" data-source-line="86" data-uid="lnk31" id="link_Binding_Port"><path codeLine="86" d="M420.98,233.9069 C411.94,259.6169 399.4614,295.087 390.4014,320.837" fill="none" id="Binding-to-Port-1" style="stroke:#181818;stroke-width:1;"/><polygon fill="#181818" points="388.41,326.4969,395.1704,319.3346,390.0695,321.7803,387.6238,316.6794,388.41,326.4969" style="stroke:#181818;stroke-width:1;"/><text fill="#000000" font-family="sans-serif" font-size="13" lengthAdjust="spacing" textLength="149.0239" x="405.19" y="292.9538">port_interne (instance)</text><text fill="#000000" font-family="sans-serif" font-size="13" lengthAdjust="spacing" textLength="8.271" x="381.4725" y="315.8068">1</text></g><!--SRC=[hLNDRjf04BxxAKPS26aWJOzHYaI9qrWA1jccwgrox0bPrQoTtNMKzETTUapkVGDUhBDhBnYNv53AnNXslczcl_cn_Cfu4Oju2KaMIpbIIh3hKg6Nv3natn1E7BbsoHX7zLWW57dsg5ySHp6L8KnMpofUvkdgYLv6uGWcxy1nkj3lzy6zSYUk7uKm2iQNNkIEetamcd_MPuvZWi8uvpTiKOfOiPp3TmVeruMhk7M0Ki4oPbmXZxc2ajFviiYbVadCFwRG-RbXjOSLunieH5u8XWebdC8aBiv2kYrV747r7DPkT7KbJ1mPONBB-5tv8g8HZNDC59PY7MwHbKYmobLxnjUIY1DLQGr1dg5LQJRrj4RdNNgumMWSULE_agW5ckL2rI5d8hzdAQODKu1t9HErgGqDKTop15leRQibiDOwlIlFzNLsZHgwpGfItyJ9xHAvJUG3uwc-DU7V_-kFiEEfV-5zf8OnUhXX17EVZ9FPD1pvqRxacCLGe5YYWjKloDhzbdRZ-vm9a5HzqpfOoIy9In39baN6RXXgP9Ol6BK9fAMzEXoacE72KFK6pgORptwGe5kHj4gNgsV1LBmW2Xj61wdh81rjgQ1RPT-OjqfVmxO1jgPRXpiAle-cOHJCg-umZUoxU_4HUCxhsTRIqKEkdjA6HeD1Kzf3kb3dxM1msAdcf0jqJYfgzxMIEzqRrpSHryEy5J9O_SuCm_hOK9mO2ZlEV-qjlKyOZGOG5XYNAkQKXwwkDcHqP2WRY4PYcsnFDzZNt6rgB_iqXlL5d_yqltflq6uB8ZZh3o5qWq_UsDsJa-fZkfvtzGUXo4e97TtVdIDW6U03oOMGbo1qPwCm7mhRyeLOFITC3fpc4D4Y6zeYjcQ5HAy9Xqvpm9gGrWGHP1rvkAz-v-w5vtjc-PsxORM6zvseJVafrG2f_xH2vbO7wsxhwOr8PjFnscxRgkSqy9KAzR3jiDkHi2jnHxn6_ntFOe6RqAsCZbr-enDpB5apE34NzFY23me5fuGJG_owi_x26sSxLxq_]--></g></svg>